# xmcd
#
# Track frame offsets: 
#        150
#        11045
#        24341
#        36913
#        48774
#        60770
#        74581
#        88352
#        100569
#        105687
#        119796
#        130084
#        141166
#        152095
#        164728
#        177391
#        192245
#        206647
#        216975
#        229594
#        241176
#        251974
#        264974
#        275365
#        288469
#        301135
#
# Disc length: 4189 seconds
#
# Revision: 0
# Processed by: cddbd v1.5.2PL0 Copyright (c) Steve Scherf et al.
# Submitted via: ExactAudioCopy v0.95b4
#
DISCID=7c105b1a
DTITLE=Various Artist - The Best Of Bob Dylan's Theme Time  Radio Hour
DYEAR=2007
DGENRE=Blues
TTITLE0=Screamin' Jay Hawkins - Put A Spell On You
TTITLE1=The Turbans - When You Dance
TTITLE2=Louis Armstrong - When It's Sleepy Time Down South
TTITLE3=Slim Gaillard - Matzoh Balls
TTITLE4=Tampa Red and Big Maceo - Let Me Play With Your Poodle
TTITLE5=Carl Perkins - Tennessee
TTITLE6=Bill Monroe - Blue Moon Of Kentucky
TTITLE7=Eddie Boyd - Five Long Years
TTITLE8=Lead Belly - Christmas Is A-Comin'
TTITLE9=The Chimes - Zindy Lou
TTITLE10=JB Lenoir - Don't Touch My Head
TTITLE11=Joe Clay - Don't Mess With My Ducktail
TTITLE12=Roy Montrell - (Everytime I Hear) That Mellow Saxophone
TTITLE13=Buddy and Ella Johnson - Alright, Okay, You Win!
TTITLE14=Hank Williams - I'm So Lonesome I Could Cry
TTITLE15=Jimmie Revard and His Oklahoma Playboys - Lose Your Blues And L
TTITLE15=augh At Life
TTITLE16=Billy Holiday - Good Morning Heartache
TTITLE17=Carl Perkins - Blue Suede Shoes
TTITLE18=The Ravens - Deep Purple
TTITLE19=Bob Downen - Blue Yodel # 1 (T For Texas)
TTITLE20=Little Junior Parker - Mystery Train
TTITLE21=Sister Rosetta Tharpe - This Train
TTITLE22=Frankie Lymon and The Teenagers - Why Do Fools Fall In Love
TTITLE23=Duke Ellington - Take The 'A' Train
TTITLE24=Hank Penny - Taxes, Taxes
TTITLE25=Dinah Washington - Richest Guy In The Graveyard
EXTD=
EXTT0=
EXTT1=
EXTT2=
EXTT3=
EXTT4=
EXTT5=
EXTT6=
EXTT7=
EXTT8=
EXTT9=
EXTT10=
EXTT11=
EXTT12=
EXTT13=
EXTT14=
EXTT15=
EXTT16=
EXTT17=
EXTT18=
EXTT19=
EXTT20=
EXTT21=
EXTT22=
EXTT23=
EXTT24=
EXTT25=
PLAYORDER=
